M48
;Layer_Color=9474304
;FILE_FORMAT=4:4
METRIC,LZ
;TYPE=PLATED
T1F00S00C0.6000
T2F00S00C0.7620
T3F00S00C1.0000
T4F00S00C1.0160
T5F00S00C3.2000
%
T01
X00508Y001
X00523008Y001075
X005225Y002925
X004975Y003125
X00515Y0038
Y00415
X0047752Y0034
Y0025498
Y0019248
X004625Y001875
X0045079Y002125
X003375
X0031131Y00225
X0029905Y0024155
X0022Y0024
X0019685Y002675
X0021Y002875
X0024765Y003125
X001725Y003525
X00127Y0035
X0011Y0036
X00095342Y0034
Y00287408
X001025Y002575
Y001905
X0021Y001975
X00235Y001675
X0024765Y0011735
X0015265Y00115
X004625Y00085
X0037465Y00275
X003525Y002925
X00145Y0045466
X000775Y003725
Y0032385
Y002225
X0002Y00205
T02
X002794Y000254
X003048
X003302
X003556
X00381
X004064
X004318
X004572
X00508
X005334
X005588
X005842
X006096
X00635
X004826Y00508
X004572
X0041656
X0039116
X0036576
X0034036
X0031496
X0028956
X0026416
X0023876
X0021336
X0018796
X00508
X005334
X005588
X005842
X006096
X00635
T03
X0009525Y001524
X0012065
X0014605
X0017145
X0019685
X0022225
X0024765
X0027305
X0029845
X0032385
X0034925
X0037465
X0040005
X0042545
X0045085
X0047625
Y004064
X0045085
X0042545
X0040005
X0037465
X0034925
X0032385
X0029845
X0027305
X0024765
X0022225
X0019685
X0017145
X0014605
X0012065
X0009525
X0006985
X0004445
X0001905
Y001524
X0004445
X0006985
T04
X000254Y000425
X000508
X000762
X001016
X00127
X001524
X001778
X002032
X0064135Y0012573
Y0015113
Y001905
Y002159
Y00254
Y002794
X005969Y003175
Y003429
Y003683
Y003937
Y004191
Y004445
X0004445Y004925
X0001905
T05
X006604Y003556
X001524Y00508
M30
