G04*
G04 #@! TF.GenerationSoftware,Altium Limited,Altium Designer,19.0.15 (446)*
G04*
G04 Layer_Physical_Order=2*
G04 Layer_Color=16711680*
%FSLAX44Y44*%
%MOMM*%
G71*
G01*
G75*
%ADD10C,0.1270*%
%ADD15C,0.4000*%
%ADD30C,0.3000*%
%ADD31C,0.2000*%
%ADD32C,0.5000*%
%ADD33C,1.9050*%
%ADD34R,1.9050X1.9050*%
%ADD35R,1.9050X1.9050*%
%ADD36C,1.8000*%
%ADD37R,1.8000X1.8000*%
%ADD38C,3.2000*%
%ADD39C,1.5240*%
%ADD40R,1.5240X1.5240*%
%ADD41C,1.0000*%
G36*
X21188Y512927D02*
X17500D01*
Y514132D01*
X21188D01*
Y512927D01*
D02*
G37*
G36*
X43783Y515368D02*
X46435D01*
Y514248D01*
X43783D01*
Y511574D01*
X42652D01*
Y514248D01*
X40000D01*
Y515368D01*
X42652D01*
Y518020D01*
X43783D01*
Y515368D01*
D02*
G37*
D10*
X676400Y355600D02*
G03*
X676400Y355600I-15999J0D01*
G01*
X168400Y508000D02*
G03*
X168400Y508000I-15999J0D01*
G01*
X660400Y0D02*
Y12700D01*
X685800Y38100D01*
Y381000D01*
X660400Y406400D02*
X685800Y381000D01*
X660400Y406400D02*
Y508000D01*
X635000Y533400D02*
X660400Y508000D01*
X0Y0D02*
Y533400D01*
Y0D02*
X660400D01*
X0Y533400D02*
X635000Y533400D01*
D15*
X477520Y254980D02*
Y340000D01*
Y405130D01*
Y192480D02*
Y254980D01*
X95342Y287408D02*
Y340000D01*
X508000Y100000D02*
Y177000D01*
Y53000D02*
Y100000D01*
X25400Y24600D02*
Y42500D01*
Y24600D02*
X32500Y17500D01*
X240000D01*
X267500Y45000D01*
X360600D01*
X355600Y25400D02*
Y40000D01*
X360600Y45000D01*
X500000D01*
X508000Y53000D01*
X492520Y192480D02*
X508000Y177000D01*
X477520Y192480D02*
X492520D01*
X476250Y406400D02*
X477520Y405130D01*
D30*
X239944Y170550D02*
X240000D01*
X236894Y167500D02*
X239944Y170550D01*
X235000Y167500D02*
X236894D01*
X240000Y170550D02*
X247650Y178200D01*
Y312500D01*
X497500D02*
Y427500D01*
X485000Y440000D02*
X497500Y427500D01*
X435000Y440000D02*
X485000D01*
X416560Y458440D02*
X435000Y440000D01*
X416560Y458440D02*
Y508000D01*
D31*
X285910Y183410D02*
Y411594D01*
X273050Y170550D02*
X285910Y183410D01*
X311310Y225000D02*
Y411594D01*
X298450Y241550D02*
Y406400D01*
Y241550D02*
X299050D01*
X311310Y186310D02*
Y225000D01*
X336710Y213290D02*
Y411594D01*
Y213290D02*
X337500Y212500D01*
X349250Y295750D02*
Y406400D01*
Y295750D02*
X352500Y292500D01*
X374650Y275000D02*
Y406400D01*
X273050Y152400D02*
Y170550D01*
X522500Y292500D02*
X523008Y291992D01*
Y107500D02*
Y291992D01*
X171450Y152400D02*
X172500Y153450D01*
Y352500D01*
X127000Y350000D02*
Y352500D01*
Y187910D02*
Y350000D01*
X120650Y181560D02*
X127000Y187910D01*
X120650Y152400D02*
Y181560D01*
X95250Y152400D02*
Y165250D01*
X111040Y181040D01*
Y358960D01*
X110000Y360000D02*
X111040Y358960D01*
X515000Y380000D02*
Y415000D01*
Y377500D02*
Y380000D01*
X152650Y115000D02*
X165150Y102500D01*
X111600Y95000D02*
X287500D01*
X298450Y105950D01*
X165150Y102500D02*
X267500D01*
X273050Y108050D01*
Y152400D01*
X450850Y65850D02*
Y152400D01*
X440000Y55000D02*
X450850Y65850D01*
X262500Y55000D02*
X440000D01*
X235000Y27500D02*
X262500Y55000D01*
X132500Y27500D02*
X235000D01*
X127000Y33000D02*
X132500Y27500D01*
X127000Y33000D02*
Y42500D01*
X101600D02*
Y85000D01*
X111600Y95000D01*
X298450Y105950D02*
Y152400D01*
X177800Y42500D02*
Y67500D01*
X349250Y84250D02*
Y152400D01*
X177800Y67500D02*
X185300Y75000D01*
X340000D01*
X349250Y84250D01*
X412500Y70000D02*
X425450Y82950D01*
X215000Y70000D02*
X412500D01*
X203200Y58200D02*
X215000Y70000D01*
X203200Y42500D02*
Y58200D01*
X247650Y117350D02*
Y152400D01*
Y115150D02*
Y117350D01*
X425450Y82950D02*
Y152400D01*
X102500Y190500D02*
Y257500D01*
X196850Y267500D02*
Y406400D01*
X222250Y393450D02*
Y406400D01*
X220000Y391200D02*
X222250Y393450D01*
X220000Y240000D02*
Y391200D01*
X298450Y173450D02*
X311310Y186310D01*
X450790Y152460D02*
X450850Y152400D01*
X450790Y152460D02*
Y212500D01*
X298450Y152400D02*
Y173450D01*
X336710Y411594D02*
X340360Y415244D01*
Y508000D01*
X311310Y411594D02*
X314960Y415244D01*
Y508000D01*
X285910Y411594D02*
X289560Y415244D01*
Y508000D01*
D32*
X145000Y453307D02*
Y454660D01*
Y453307D02*
X146050Y452257D01*
Y406400D02*
Y452257D01*
X19050Y406400D02*
Y434050D01*
X44450Y459450D01*
Y492500D01*
X462500Y85000D02*
X472500D01*
X497500Y110000D01*
Y167500D01*
X491550Y173450D02*
X497500Y167500D01*
X468550Y173450D02*
X491550D01*
X462500Y179500D02*
X468550Y173450D01*
X462500Y179500D02*
Y187500D01*
X19050Y205950D02*
X20000Y205000D01*
X19050Y205950D02*
Y406400D01*
X210000Y197500D02*
Y235801D01*
X209960Y235841D02*
X210000Y235801D01*
X209960Y235841D02*
Y287460D01*
X210000Y287500D01*
X77500Y323850D02*
Y372500D01*
Y222500D02*
Y323850D01*
X431800Y522500D02*
X437500Y516800D01*
X264160Y508000D02*
Y519160D01*
X267500Y522500D02*
X431800D01*
X264160Y519160D02*
X267500Y522500D01*
X437500Y492500D02*
Y516800D01*
Y492500D02*
X445000Y485000D01*
X567500D01*
X570900Y481600D01*
Y419100D02*
Y481600D01*
Y419100D02*
X596900D01*
D33*
X19050Y492500D02*
D03*
X152400Y42500D02*
D03*
X177800D02*
D03*
X203200D02*
D03*
X50800D02*
D03*
X76200D02*
D03*
X101600D02*
D03*
X596900Y444500D02*
D03*
Y342900D02*
D03*
Y368300D02*
D03*
Y393700D02*
D03*
Y419100D02*
D03*
X641350Y151130D02*
D03*
Y215900D02*
D03*
Y279400D02*
D03*
D34*
X44450Y492500D02*
D03*
X127000Y42500D02*
D03*
X25400D02*
D03*
D35*
X596900Y317500D02*
D03*
X641350Y125730D02*
D03*
Y190500D02*
D03*
Y254000D02*
D03*
D36*
X19050Y152400D02*
D03*
X44450D02*
D03*
X69850D02*
D03*
X95250D02*
D03*
X120650D02*
D03*
X146050D02*
D03*
X171450D02*
D03*
X196850D02*
D03*
X222250D02*
D03*
X247650D02*
D03*
X273050D02*
D03*
X298450D02*
D03*
X323850D02*
D03*
X349250D02*
D03*
X374650D02*
D03*
X400050D02*
D03*
X425450D02*
D03*
X450850D02*
D03*
X476250D02*
D03*
X19050Y406400D02*
D03*
X44450D02*
D03*
X69850D02*
D03*
X95250D02*
D03*
X120650D02*
D03*
X146050D02*
D03*
X171450D02*
D03*
X196850D02*
D03*
X222250D02*
D03*
X247650D02*
D03*
X273050D02*
D03*
X298450D02*
D03*
X323850D02*
D03*
X349250D02*
D03*
X374650D02*
D03*
X400050D02*
D03*
X425450D02*
D03*
X450850D02*
D03*
D37*
X476250D02*
D03*
D38*
X660400Y355600D02*
D03*
X152400Y508000D02*
D03*
D39*
X406400Y25400D02*
D03*
X431800D02*
D03*
X279400D02*
D03*
X304800D02*
D03*
X330200D02*
D03*
X355600D02*
D03*
X381000D02*
D03*
X584200Y508000D02*
D03*
X609600D02*
D03*
X457200D02*
D03*
X482600D02*
D03*
X508000D02*
D03*
X533400D02*
D03*
X558800D02*
D03*
X187960D02*
D03*
X213360D02*
D03*
X238760D02*
D03*
X264160D02*
D03*
X289560D02*
D03*
X314960D02*
D03*
X340360D02*
D03*
X365760D02*
D03*
X391160D02*
D03*
X635000Y25400D02*
D03*
X609600D02*
D03*
X584200D02*
D03*
X558800D02*
D03*
X533400D02*
D03*
D40*
X457200D02*
D03*
X635000Y508000D02*
D03*
X416560D02*
D03*
X508000Y25400D02*
D03*
D41*
X235000Y167500D02*
D03*
X247650Y312500D02*
D03*
X497500D02*
D03*
X145000Y454660D02*
D03*
X462500Y85000D02*
D03*
Y187500D02*
D03*
X374650Y275000D02*
D03*
X352500Y292500D02*
D03*
X522500D02*
D03*
X523008Y107500D02*
D03*
X299050Y241550D02*
D03*
X20000Y205000D02*
D03*
X210000Y197500D02*
D03*
Y287500D02*
D03*
X172500Y352500D02*
D03*
X127000Y350000D02*
D03*
X110000Y360000D02*
D03*
X77500Y323850D02*
D03*
X95342Y340000D02*
D03*
Y287408D02*
D03*
X515000Y380000D02*
D03*
Y415000D02*
D03*
X77500Y222500D02*
D03*
Y372500D02*
D03*
X152650Y115000D02*
D03*
X247650Y117350D02*
D03*
X102500Y190500D02*
D03*
Y257500D02*
D03*
X508000Y100000D02*
D03*
X477520Y192480D02*
D03*
Y254980D02*
D03*
Y340000D02*
D03*
X196850Y267500D02*
D03*
X220000Y240000D02*
D03*
X311310Y225000D02*
D03*
X450790Y212500D02*
D03*
X337500D02*
D03*
M02*
