G04*
G04 #@! TF.GenerationSoftware,Altium Limited,Altium Designer,19.0.15 (446)*
G04*
G04 Layer_Color=2752767*
%FSLAX44Y44*%
%MOMM*%
G71*
G01*
G75*
%ADD10C,0.1270*%
%ADD42C,0.1693*%
D10*
X676400Y355600D02*
G03*
X676400Y355600I-15999J0D01*
G01*
X168400Y508000D02*
G03*
X168400Y508000I-15999J0D01*
G01*
X660400Y0D02*
Y12700D01*
X685800Y38100D01*
Y381000D01*
X660400Y406400D02*
X685800Y381000D01*
X660400Y406400D02*
Y508000D01*
X635000Y533400D02*
X660400Y508000D01*
X0Y0D02*
Y533400D01*
Y0D02*
X660400D01*
X0Y533400D02*
X635000Y533400D01*
X13970Y487420D02*
Y497580D01*
X24130D01*
Y487420D01*
X13970D01*
X39370D02*
Y497580D01*
X49530D01*
Y487420D01*
X39370D01*
X121920Y37420D02*
Y47580D01*
X132080D01*
Y37420D01*
X121920D01*
X147320D02*
Y47580D01*
X157480D01*
Y37420D01*
X147320D01*
X172720D02*
Y47580D01*
X182880D01*
Y37420D01*
X172720D01*
X198120D02*
Y47580D01*
X208280D01*
Y37420D01*
X198120D01*
X20320D02*
Y47580D01*
X30480D01*
Y37420D01*
X20320D01*
X45720D02*
Y47580D01*
X55880D01*
Y37420D01*
X45720D01*
X71120D02*
Y47580D01*
X81280D01*
Y37420D01*
X71120D01*
X96520D02*
Y47580D01*
X106680D01*
Y37420D01*
X96520D01*
X591820Y439420D02*
Y449580D01*
X601980D01*
Y439420D01*
X591820D01*
Y312420D02*
Y322580D01*
X601980D01*
Y312420D01*
X591820D01*
Y337820D02*
Y347980D01*
X601980D01*
Y337820D01*
X591820D01*
Y363220D02*
Y373380D01*
X601980D01*
Y363220D01*
X591820D01*
Y388620D02*
Y398780D01*
X601980D01*
Y388620D01*
X591820D01*
Y414020D02*
Y424180D01*
X601980D01*
Y414020D01*
X591820D01*
X636270Y146050D02*
Y156210D01*
X646430D01*
Y146050D01*
X636270D01*
Y120650D02*
Y130810D01*
X646430D01*
Y120650D01*
X636270D01*
Y210820D02*
Y220980D01*
X646430D01*
Y210820D01*
X636270D01*
Y185420D02*
Y195580D01*
X646430D01*
Y185420D01*
X636270D01*
Y274320D02*
Y284480D01*
X646430D01*
Y274320D01*
X636270D01*
Y248920D02*
Y259080D01*
X646430D01*
Y248920D01*
X636270D01*
X660400Y350520D02*
X655320Y360680D01*
X665480D01*
X660400Y350520D01*
X406400Y20320D02*
X408940Y22860D01*
X411480D01*
X408940Y25400D01*
X411480Y27940D01*
X408940D01*
X406400Y30480D01*
X403860Y27940D01*
X401320D01*
X403860Y25400D01*
X401320Y22860D01*
X403860D01*
X406400Y20320D01*
X431800D02*
X434340Y22860D01*
X436880D01*
X434340Y25400D01*
X436880Y27940D01*
X434340D01*
X431800Y30480D01*
X429260Y27940D01*
X426720D01*
X429260Y25400D01*
X426720Y22860D01*
X429260D01*
X431800Y20320D01*
X279400D02*
X281940Y22860D01*
X284480D01*
X281940Y25400D01*
X284480Y27940D01*
X281940D01*
X279400Y30480D01*
X276860Y27940D01*
X274320D01*
X276860Y25400D01*
X274320Y22860D01*
X276860D01*
X279400Y20320D01*
X304800D02*
X307340Y22860D01*
X309880D01*
X307340Y25400D01*
X309880Y27940D01*
X307340D01*
X304800Y30480D01*
X302260Y27940D01*
X299720D01*
X302260Y25400D01*
X299720Y22860D01*
X302260D01*
X304800Y20320D01*
X330200D02*
X332740Y22860D01*
X335280D01*
X332740Y25400D01*
X335280Y27940D01*
X332740D01*
X330200Y30480D01*
X327660Y27940D01*
X325120D01*
X327660Y25400D01*
X325120Y22860D01*
X327660D01*
X330200Y20320D01*
X355600D02*
X358140Y22860D01*
X360680D01*
X358140Y25400D01*
X360680Y27940D01*
X358140D01*
X355600Y30480D01*
X353060Y27940D01*
X350520D01*
X353060Y25400D01*
X350520Y22860D01*
X353060D01*
X355600Y20320D01*
X381000D02*
X383540Y22860D01*
X386080D01*
X383540Y25400D01*
X386080Y27940D01*
X383540D01*
X381000Y30480D01*
X378460Y27940D01*
X375920D01*
X378460Y25400D01*
X375920Y22860D01*
X378460D01*
X381000Y20320D01*
X457200D02*
X459740Y22860D01*
X462280D01*
X459740Y25400D01*
X462280Y27940D01*
X459740D01*
X457200Y30480D01*
X454660Y27940D01*
X452120D01*
X454660Y25400D01*
X452120Y22860D01*
X454660D01*
X457200Y20320D01*
X584200Y502920D02*
X586740Y505460D01*
X589280D01*
X586740Y508000D01*
X589280Y510540D01*
X586740D01*
X584200Y513080D01*
X581660Y510540D01*
X579120D01*
X581660Y508000D01*
X579120Y505460D01*
X581660D01*
X584200Y502920D01*
X609600D02*
X612140Y505460D01*
X614680D01*
X612140Y508000D01*
X614680Y510540D01*
X612140D01*
X609600Y513080D01*
X607060Y510540D01*
X604520D01*
X607060Y508000D01*
X604520Y505460D01*
X607060D01*
X609600Y502920D01*
X457200D02*
X459740Y505460D01*
X462280D01*
X459740Y508000D01*
X462280Y510540D01*
X459740D01*
X457200Y513080D01*
X454660Y510540D01*
X452120D01*
X454660Y508000D01*
X452120Y505460D01*
X454660D01*
X457200Y502920D01*
X482600D02*
X485140Y505460D01*
X487680D01*
X485140Y508000D01*
X487680Y510540D01*
X485140D01*
X482600Y513080D01*
X480060Y510540D01*
X477520D01*
X480060Y508000D01*
X477520Y505460D01*
X480060D01*
X482600Y502920D01*
X508000D02*
X510540Y505460D01*
X513080D01*
X510540Y508000D01*
X513080Y510540D01*
X510540D01*
X508000Y513080D01*
X505460Y510540D01*
X502920D01*
X505460Y508000D01*
X502920Y505460D01*
X505460D01*
X508000Y502920D01*
X533400D02*
X535940Y505460D01*
X538480D01*
X535940Y508000D01*
X538480Y510540D01*
X535940D01*
X533400Y513080D01*
X530860Y510540D01*
X528320D01*
X530860Y508000D01*
X528320Y505460D01*
X530860D01*
X533400Y502920D01*
X558800D02*
X561340Y505460D01*
X563880D01*
X561340Y508000D01*
X563880Y510540D01*
X561340D01*
X558800Y513080D01*
X556260Y510540D01*
X553720D01*
X556260Y508000D01*
X553720Y505460D01*
X556260D01*
X558800Y502920D01*
X635000D02*
X637540Y505460D01*
X640080D01*
X637540Y508000D01*
X640080Y510540D01*
X637540D01*
X635000Y513080D01*
X632460Y510540D01*
X629920D01*
X632460Y508000D01*
X629920Y505460D01*
X632460D01*
X635000Y502920D01*
X187960D02*
X190500Y505460D01*
X193040D01*
X190500Y508000D01*
X193040Y510540D01*
X190500D01*
X187960Y513080D01*
X185420Y510540D01*
X182880D01*
X185420Y508000D01*
X182880Y505460D01*
X185420D01*
X187960Y502920D01*
X213360D02*
X215900Y505460D01*
X218440D01*
X215900Y508000D01*
X218440Y510540D01*
X215900D01*
X213360Y513080D01*
X210820Y510540D01*
X208280D01*
X210820Y508000D01*
X208280Y505460D01*
X210820D01*
X213360Y502920D01*
X238760D02*
X241300Y505460D01*
X243840D01*
X241300Y508000D01*
X243840Y510540D01*
X241300D01*
X238760Y513080D01*
X236220Y510540D01*
X233680D01*
X236220Y508000D01*
X233680Y505460D01*
X236220D01*
X238760Y502920D01*
X264160D02*
X266700Y505460D01*
X269240D01*
X266700Y508000D01*
X269240Y510540D01*
X266700D01*
X264160Y513080D01*
X261620Y510540D01*
X259080D01*
X261620Y508000D01*
X259080Y505460D01*
X261620D01*
X264160Y502920D01*
X289560D02*
X292100Y505460D01*
X294640D01*
X292100Y508000D01*
X294640Y510540D01*
X292100D01*
X289560Y513080D01*
X287020Y510540D01*
X284480D01*
X287020Y508000D01*
X284480Y505460D01*
X287020D01*
X289560Y502920D01*
X314960D02*
X317500Y505460D01*
X320040D01*
X317500Y508000D01*
X320040Y510540D01*
X317500D01*
X314960Y513080D01*
X312420Y510540D01*
X309880D01*
X312420Y508000D01*
X309880Y505460D01*
X312420D01*
X314960Y502920D01*
X340360D02*
X342900Y505460D01*
X345440D01*
X342900Y508000D01*
X345440Y510540D01*
X342900D01*
X340360Y513080D01*
X337820Y510540D01*
X335280D01*
X337820Y508000D01*
X335280Y505460D01*
X337820D01*
X340360Y502920D01*
X365760D02*
X368300Y505460D01*
X370840D01*
X368300Y508000D01*
X370840Y510540D01*
X368300D01*
X365760Y513080D01*
X363220Y510540D01*
X360680D01*
X363220Y508000D01*
X360680Y505460D01*
X363220D01*
X365760Y502920D01*
X391160D02*
X393700Y505460D01*
X396240D01*
X393700Y508000D01*
X396240Y510540D01*
X393700D01*
X391160Y513080D01*
X388620Y510540D01*
X386080D01*
X388620Y508000D01*
X386080Y505460D01*
X388620D01*
X391160Y502920D01*
X416560D02*
X419100Y505460D01*
X421640D01*
X419100Y508000D01*
X421640Y510540D01*
X419100D01*
X416560Y513080D01*
X414020Y510540D01*
X411480D01*
X414020Y508000D01*
X411480Y505460D01*
X414020D01*
X416560Y502920D01*
X635000Y20320D02*
X637540Y22860D01*
X640080D01*
X637540Y25400D01*
X640080Y27940D01*
X637540D01*
X635000Y30480D01*
X632460Y27940D01*
X629920D01*
X632460Y25400D01*
X629920Y22860D01*
X632460D01*
X635000Y20320D01*
X609600D02*
X612140Y22860D01*
X614680D01*
X612140Y25400D01*
X614680Y27940D01*
X612140D01*
X609600Y30480D01*
X607060Y27940D01*
X604520D01*
X607060Y25400D01*
X604520Y22860D01*
X607060D01*
X609600Y20320D01*
X584200D02*
X586740Y22860D01*
X589280D01*
X586740Y25400D01*
X589280Y27940D01*
X586740D01*
X584200Y30480D01*
X581660Y27940D01*
X579120D01*
X581660Y25400D01*
X579120Y22860D01*
X581660D01*
X584200Y20320D01*
X558800D02*
X561340Y22860D01*
X563880D01*
X561340Y25400D01*
X563880Y27940D01*
X561340D01*
X558800Y30480D01*
X556260Y27940D01*
X553720D01*
X556260Y25400D01*
X553720Y22860D01*
X556260D01*
X558800Y20320D01*
X533400D02*
X535940Y22860D01*
X538480D01*
X535940Y25400D01*
X538480Y27940D01*
X535940D01*
X533400Y30480D01*
X530860Y27940D01*
X528320D01*
X530860Y25400D01*
X528320Y22860D01*
X530860D01*
X533400Y20320D01*
X508000D02*
X510540Y22860D01*
X513080D01*
X510540Y25400D01*
X513080Y27940D01*
X510540D01*
X508000Y30480D01*
X505460Y27940D01*
X502920D01*
X505460Y25400D01*
X502920Y22860D01*
X505460D01*
X508000Y20320D01*
X152400Y502920D02*
X147320Y513080D01*
X157480D01*
X152400Y502920D01*
X229920Y162420D02*
X232460Y167500D01*
X229920Y172580D01*
X235000Y170040D01*
X240080Y172580D01*
X237540Y167500D01*
X240080Y162420D01*
X235000Y164960D01*
X229920Y162420D01*
X242570Y307420D02*
X245110Y312500D01*
X242570Y317580D01*
X247650Y315040D01*
X252730Y317580D01*
X250190Y312500D01*
X252730Y307420D01*
X247650Y309960D01*
X242570Y307420D01*
X492420D02*
X494960Y312500D01*
X492420Y317580D01*
X497500Y315040D01*
X502580Y317580D01*
X500040Y312500D01*
X502580Y307420D01*
X497500Y309960D01*
X492420Y307420D01*
X139920Y449580D02*
X142460Y454660D01*
X139920Y459740D01*
X145000Y457200D01*
X150080Y459740D01*
X147540Y454660D01*
X150080Y449580D01*
X145000Y452120D01*
X139920Y449580D01*
X457420Y79920D02*
X459960Y85000D01*
X457420Y90080D01*
X462500Y87540D01*
X467580Y90080D01*
X465040Y85000D01*
X467580Y79920D01*
X462500Y82460D01*
X457420Y79920D01*
Y182420D02*
X459960Y187500D01*
X457420Y192580D01*
X462500Y190040D01*
X467580Y192580D01*
X465040Y187500D01*
X467580Y182420D01*
X462500Y184960D01*
X457420Y182420D01*
X369570Y269920D02*
X372110Y275000D01*
X369570Y280080D01*
X374650Y277540D01*
X379730Y280080D01*
X377190Y275000D01*
X379730Y269920D01*
X374650Y272460D01*
X369570Y269920D01*
X347420Y287420D02*
X349960Y292500D01*
X347420Y297580D01*
X352500Y295040D01*
X357580Y297580D01*
X355040Y292500D01*
X357580Y287420D01*
X352500Y289960D01*
X347420Y287420D01*
X517420D02*
X519960Y292500D01*
X517420Y297580D01*
X522500Y295040D01*
X527580Y297580D01*
X525040Y292500D01*
X527580Y287420D01*
X522500Y289960D01*
X517420Y287420D01*
X517928Y102420D02*
X520468Y107500D01*
X517928Y112580D01*
X523008Y110040D01*
X528088Y112580D01*
X525548Y107500D01*
X528088Y102420D01*
X523008Y104960D01*
X517928Y102420D01*
X293970Y236470D02*
X296510Y241550D01*
X293970Y246630D01*
X299050Y244090D01*
X304130Y246630D01*
X301590Y241550D01*
X304130Y236470D01*
X299050Y239010D01*
X293970Y236470D01*
X14920Y199920D02*
X17460Y205000D01*
X14920Y210080D01*
X20000Y207540D01*
X25080Y210080D01*
X22540Y205000D01*
X25080Y199920D01*
X20000Y202460D01*
X14920Y199920D01*
X204920Y192420D02*
X207460Y197500D01*
X204920Y202580D01*
X210000Y200040D01*
X215080Y202580D01*
X212540Y197500D01*
X215080Y192420D01*
X210000Y194960D01*
X204920Y192420D01*
Y282420D02*
X207460Y287500D01*
X204920Y292580D01*
X210000Y290040D01*
X215080Y292580D01*
X212540Y287500D01*
X215080Y282420D01*
X210000Y284960D01*
X204920Y282420D01*
X167420Y347420D02*
X169960Y352500D01*
X167420Y357580D01*
X172500Y355040D01*
X177580Y357580D01*
X175040Y352500D01*
X177580Y347420D01*
X172500Y349960D01*
X167420Y347420D01*
X121920Y344920D02*
X124460Y350000D01*
X121920Y355080D01*
X127000Y352540D01*
X132080Y355080D01*
X129540Y350000D01*
X132080Y344920D01*
X127000Y347460D01*
X121920Y344920D01*
X104920Y354920D02*
X107460Y360000D01*
X104920Y365080D01*
X110000Y362540D01*
X115080Y365080D01*
X112540Y360000D01*
X115080Y354920D01*
X110000Y357460D01*
X104920Y354920D01*
X72420Y318770D02*
X74960Y323850D01*
X72420Y328930D01*
X77500Y326390D01*
X82580Y328930D01*
X80040Y323850D01*
X82580Y318770D01*
X77500Y321310D01*
X72420Y318770D01*
X90262Y334920D02*
X92802Y340000D01*
X90262Y345080D01*
X95342Y342540D01*
X100422Y345080D01*
X97882Y340000D01*
X100422Y334920D01*
X95342Y337460D01*
X90262Y334920D01*
Y282328D02*
X92802Y287408D01*
X90262Y292488D01*
X95342Y289948D01*
X100422Y292488D01*
X97882Y287408D01*
X100422Y282328D01*
X95342Y284868D01*
X90262Y282328D01*
X509920Y374920D02*
X512460Y380000D01*
X509920Y385080D01*
X515000Y382540D01*
X520080Y385080D01*
X517540Y380000D01*
X520080Y374920D01*
X515000Y377460D01*
X509920Y374920D01*
Y409920D02*
X512460Y415000D01*
X509920Y420080D01*
X515000Y417540D01*
X520080Y420080D01*
X517540Y415000D01*
X520080Y409920D01*
X515000Y412460D01*
X509920Y409920D01*
X72420Y217420D02*
X74960Y222500D01*
X72420Y227580D01*
X77500Y225040D01*
X82580Y227580D01*
X80040Y222500D01*
X82580Y217420D01*
X77500Y219960D01*
X72420Y217420D01*
Y367420D02*
X74960Y372500D01*
X72420Y377580D01*
X77500Y375040D01*
X82580Y377580D01*
X80040Y372500D01*
X82580Y367420D01*
X77500Y369960D01*
X72420Y367420D01*
X147570Y109920D02*
X150110Y115000D01*
X147570Y120080D01*
X152650Y117540D01*
X157730Y120080D01*
X155190Y115000D01*
X157730Y109920D01*
X152650Y112460D01*
X147570Y109920D01*
X242570Y112270D02*
X245110Y117350D01*
X242570Y122430D01*
X247650Y119890D01*
X252730Y122430D01*
X250190Y117350D01*
X252730Y112270D01*
X247650Y114810D01*
X242570Y112270D01*
X97420Y185420D02*
X99960Y190500D01*
X97420Y195580D01*
X102500Y193040D01*
X107580Y195580D01*
X105040Y190500D01*
X107580Y185420D01*
X102500Y187960D01*
X97420Y185420D01*
Y252420D02*
X99960Y257500D01*
X97420Y262580D01*
X102500Y260040D01*
X107580Y262580D01*
X105040Y257500D01*
X107580Y252420D01*
X102500Y254960D01*
X97420Y252420D01*
X502920Y94920D02*
X505460Y100000D01*
X502920Y105080D01*
X508000Y102540D01*
X513080Y105080D01*
X510540Y100000D01*
X513080Y94920D01*
X508000Y97460D01*
X502920Y94920D01*
X472440Y187400D02*
X474980Y192480D01*
X472440Y197560D01*
X477520Y195020D01*
X482600Y197560D01*
X480060Y192480D01*
X482600Y187400D01*
X477520Y189940D01*
X472440Y187400D01*
Y249900D02*
X474980Y254980D01*
X472440Y260060D01*
X477520Y257520D01*
X482600Y260060D01*
X480060Y254980D01*
X482600Y249900D01*
X477520Y252440D01*
X472440Y249900D01*
Y334920D02*
X474980Y340000D01*
X472440Y345080D01*
X477520Y342540D01*
X482600Y345080D01*
X480060Y340000D01*
X482600Y334920D01*
X477520Y337460D01*
X472440Y334920D01*
X191770Y262420D02*
X194310Y267500D01*
X191770Y272580D01*
X196850Y270040D01*
X201930Y272580D01*
X199390Y267500D01*
X201930Y262420D01*
X196850Y264960D01*
X191770Y262420D01*
X214920Y234920D02*
X217460Y240000D01*
X214920Y245080D01*
X220000Y242540D01*
X225080Y245080D01*
X222540Y240000D01*
X225080Y234920D01*
X220000Y237460D01*
X214920Y234920D01*
X306230Y219920D02*
X308770Y225000D01*
X306230Y230080D01*
X311310Y227540D01*
X316390Y230080D01*
X313850Y225000D01*
X316390Y219920D01*
X311310Y222460D01*
X306230Y219920D01*
X445710Y207420D02*
X448250Y212500D01*
X445710Y217580D01*
X450790Y215040D01*
X455870Y217580D01*
X453330Y212500D01*
X455870Y207420D01*
X450790Y209960D01*
X445710Y207420D01*
X332420D02*
X334960Y212500D01*
X332420Y217580D01*
X337500Y215040D01*
X342580Y217580D01*
X340040Y212500D01*
X342580Y207420D01*
X337500Y209960D01*
X332420Y207420D01*
D42*
X24130Y152400D02*
G03*
X24130Y152400I-5080J0D01*
G01*
X49530D02*
G03*
X49530Y152400I-5080J0D01*
G01*
X74930D02*
G03*
X74930Y152400I-5080J0D01*
G01*
X100330D02*
G03*
X100330Y152400I-5080J0D01*
G01*
X125730D02*
G03*
X125730Y152400I-5080J0D01*
G01*
X151130D02*
G03*
X151130Y152400I-5080J0D01*
G01*
X176530D02*
G03*
X176530Y152400I-5080J0D01*
G01*
X201930D02*
G03*
X201930Y152400I-5080J0D01*
G01*
X227330D02*
G03*
X227330Y152400I-5080J0D01*
G01*
X252730D02*
G03*
X252730Y152400I-5080J0D01*
G01*
X278130D02*
G03*
X278130Y152400I-5080J0D01*
G01*
X303530D02*
G03*
X303530Y152400I-5080J0D01*
G01*
X328930D02*
G03*
X328930Y152400I-5080J0D01*
G01*
X354330D02*
G03*
X354330Y152400I-5080J0D01*
G01*
X379730D02*
G03*
X379730Y152400I-5080J0D01*
G01*
X405130D02*
G03*
X405130Y152400I-5080J0D01*
G01*
X430530D02*
G03*
X430530Y152400I-5080J0D01*
G01*
X455930D02*
G03*
X455930Y152400I-5080J0D01*
G01*
X481330D02*
G03*
X481330Y152400I-5080J0D01*
G01*
X24130Y406400D02*
G03*
X24130Y406400I-5080J0D01*
G01*
X49530D02*
G03*
X49530Y406400I-5080J0D01*
G01*
X74930D02*
G03*
X74930Y406400I-5080J0D01*
G01*
X100330D02*
G03*
X100330Y406400I-5080J0D01*
G01*
X125730D02*
G03*
X125730Y406400I-5080J0D01*
G01*
X151130D02*
G03*
X151130Y406400I-5080J0D01*
G01*
X176530D02*
G03*
X176530Y406400I-5080J0D01*
G01*
X201930D02*
G03*
X201930Y406400I-5080J0D01*
G01*
X227330D02*
G03*
X227330Y406400I-5080J0D01*
G01*
X252730D02*
G03*
X252730Y406400I-5080J0D01*
G01*
X278130D02*
G03*
X278130Y406400I-5080J0D01*
G01*
X303530D02*
G03*
X303530Y406400I-5080J0D01*
G01*
X328930D02*
G03*
X328930Y406400I-5080J0D01*
G01*
X354330D02*
G03*
X354330Y406400I-5080J0D01*
G01*
X379730D02*
G03*
X379730Y406400I-5080J0D01*
G01*
X405130D02*
G03*
X405130Y406400I-5080J0D01*
G01*
X430530D02*
G03*
X430530Y406400I-5080J0D01*
G01*
X455930D02*
G03*
X455930Y406400I-5080J0D01*
G01*
X481330D02*
G03*
X481330Y406400I-5080J0D01*
G01*
M02*
