G04*
G04 #@! TF.GenerationSoftware,Altium Limited,Altium Designer,19.0.15 (446)*
G04*
G04 Layer_Color=8421504*
%FSLAX44Y44*%
%MOMM*%
G71*
G01*
G75*
%ADD10C,0.1270*%
%ADD11R,0.6000X0.9000*%
%ADD12R,0.9000X0.6000*%
%ADD13R,0.3000X0.9500*%
%ADD14R,0.9500X0.3000*%
D10*
X676400Y355600D02*
G03*
X676400Y355600I-15999J0D01*
G01*
X168400Y508000D02*
G03*
X168400Y508000I-15999J0D01*
G01*
X660400Y0D02*
Y12700D01*
X685800Y38100D01*
Y381000D01*
X660400Y406400D02*
X685800Y381000D01*
X660400Y406400D02*
Y508000D01*
X635000Y533400D02*
X660400Y508000D01*
X0Y0D02*
Y533400D01*
Y0D02*
X660400D01*
X0Y533400D02*
X635000Y533400D01*
D11*
X523008Y190000D02*
D03*
X506992D02*
D03*
X523008Y125000D02*
D03*
X506992D02*
D03*
X523008Y255000D02*
D03*
X506992D02*
D03*
X539750Y444500D02*
D03*
X523734D02*
D03*
X539750Y393700D02*
D03*
X523734D02*
D03*
X539750Y317500D02*
D03*
X523734D02*
D03*
X539750Y368300D02*
D03*
X523734D02*
D03*
X145492Y323850D02*
D03*
X161508D02*
D03*
D12*
X114300Y271392D02*
D03*
Y287408D02*
D03*
X196850Y288392D02*
D03*
Y304408D02*
D03*
D13*
X153500Y296400D02*
D03*
X158500D02*
D03*
X163500D02*
D03*
Y262900D02*
D03*
X158500D02*
D03*
X153500D02*
D03*
D14*
X175250Y289650D02*
D03*
Y284650D02*
D03*
Y279650D02*
D03*
Y274650D02*
D03*
Y269650D02*
D03*
X141750D02*
D03*
Y274650D02*
D03*
Y279650D02*
D03*
Y284650D02*
D03*
Y289650D02*
D03*
M02*
