G04*
G04 #@! TF.GenerationSoftware,Altium Limited,Altium Designer,19.0.15 (446)*
G04*
G04 Layer_Physical_Order=1*
G04 Layer_Color=255*
%FSLAX44Y44*%
%MOMM*%
G71*
G01*
G75*
%ADD10C,0.1270*%
%ADD11R,0.6000X0.9000*%
%ADD12R,0.9000X0.6000*%
%ADD13R,0.3000X0.9500*%
%ADD14R,0.9500X0.3000*%
%ADD15C,0.4000*%
%ADD30C,0.3000*%
%ADD31C,0.2000*%
%ADD32C,0.5000*%
%ADD33C,1.9050*%
%ADD34R,1.9050X1.9050*%
%ADD35R,1.9050X1.9050*%
%ADD36C,1.8000*%
%ADD37R,1.8000X1.8000*%
%ADD38C,3.2000*%
%ADD39C,1.5240*%
%ADD40R,1.5240X1.5240*%
%ADD41C,1.0000*%
G36*
X130205Y477217D02*
X130258D01*
X130321Y477206D01*
X130480Y477175D01*
X130670Y477132D01*
X130871Y477058D01*
X131103Y476963D01*
X131336Y476837D01*
X130913Y475727D01*
X130892Y475738D01*
X130839Y475769D01*
X130754Y475812D01*
X130638Y475864D01*
X130511Y475907D01*
X130364Y475949D01*
X130205Y475981D01*
X130036Y475991D01*
X129972D01*
X129899Y475981D01*
X129803Y475959D01*
X129687Y475928D01*
X129571Y475886D01*
X129455Y475833D01*
X129328Y475748D01*
X129317Y475738D01*
X129275Y475706D01*
X129222Y475653D01*
X129159Y475579D01*
X129085Y475484D01*
X129011Y475378D01*
X128948Y475241D01*
X128884Y475093D01*
Y475082D01*
X128874Y475061D01*
X128863Y475030D01*
X128853Y474987D01*
X128842Y474924D01*
X128821Y474850D01*
X128789Y474681D01*
X128757Y474470D01*
X128726Y474237D01*
X128705Y473973D01*
X128694Y473698D01*
Y470000D01*
X127500D01*
Y477069D01*
X128578D01*
Y476002D01*
X128599Y476023D01*
X128620Y476065D01*
X128652Y476107D01*
X128726Y476245D01*
X128831Y476393D01*
X128948Y476562D01*
X129074Y476731D01*
X129201Y476868D01*
X129275Y476932D01*
X129339Y476984D01*
X129360Y476995D01*
X129402Y477027D01*
X129476Y477058D01*
X129560Y477111D01*
X129677Y477154D01*
X129803Y477185D01*
X129951Y477217D01*
X130099Y477227D01*
X130163D01*
X130205Y477217D01*
D02*
G37*
G36*
X149341Y470000D02*
X147872D01*
X146741Y472948D01*
X142642D01*
X141585Y470000D01*
X140222D01*
X143952Y479753D01*
X145347D01*
X149341Y470000D01*
D02*
G37*
G36*
X136069Y479742D02*
X136186D01*
X136302Y479732D01*
X136439Y479711D01*
X136714Y479679D01*
X137020Y479626D01*
X137306Y479552D01*
X137580Y479446D01*
X137591D01*
X137612Y479436D01*
X137644Y479415D01*
X137697Y479394D01*
X137813Y479320D01*
X137971Y479225D01*
X138140Y479098D01*
X138309Y478939D01*
X138478Y478749D01*
X138637Y478538D01*
Y478527D01*
X138658Y478506D01*
X138669Y478474D01*
X138700Y478432D01*
X138732Y478379D01*
X138764Y478305D01*
X138838Y478147D01*
X138901Y477957D01*
X138965Y477735D01*
X139007Y477502D01*
X139028Y477249D01*
Y477238D01*
Y477217D01*
Y477185D01*
Y477143D01*
X139007Y477027D01*
X138986Y476868D01*
X138943Y476688D01*
X138880Y476488D01*
X138795Y476287D01*
X138679Y476076D01*
Y476065D01*
X138669Y476054D01*
X138648Y476023D01*
X138616Y475981D01*
X138542Y475886D01*
X138426Y475759D01*
X138288Y475621D01*
X138109Y475473D01*
X137908Y475326D01*
X137665Y475188D01*
X137675D01*
X137707Y475177D01*
X137749Y475156D01*
X137813Y475135D01*
X137887Y475104D01*
X137971Y475072D01*
X138161Y474977D01*
X138383Y474860D01*
X138605Y474702D01*
X138827Y474522D01*
X139017Y474300D01*
X139028Y474290D01*
X139038Y474269D01*
X139060Y474237D01*
X139091Y474195D01*
X139134Y474132D01*
X139176Y474058D01*
X139218Y473973D01*
X139260Y473878D01*
X139345Y473666D01*
X139430Y473413D01*
X139482Y473128D01*
X139503Y472980D01*
Y472821D01*
Y472811D01*
Y472789D01*
Y472758D01*
Y472705D01*
X139493Y472642D01*
Y472578D01*
X139472Y472409D01*
X139430Y472208D01*
X139377Y471997D01*
X139303Y471765D01*
X139208Y471543D01*
Y471532D01*
X139197Y471522D01*
X139176Y471490D01*
X139155Y471448D01*
X139091Y471342D01*
X139007Y471215D01*
X138912Y471067D01*
X138785Y470919D01*
X138648Y470771D01*
X138489Y470634D01*
X138468Y470623D01*
X138415Y470581D01*
X138320Y470528D01*
X138193Y470454D01*
X138045Y470380D01*
X137866Y470296D01*
X137654Y470222D01*
X137422Y470159D01*
X137411D01*
X137390Y470148D01*
X137359D01*
X137306Y470137D01*
X137242Y470127D01*
X137168Y470106D01*
X137084Y470095D01*
X136989Y470084D01*
X136883Y470063D01*
X136756Y470053D01*
X136492Y470021D01*
X136186Y470011D01*
X135848Y470000D01*
X132139D01*
Y479753D01*
X135974D01*
X136069Y479742D01*
D02*
G37*
G36*
X89794Y477375D02*
X89858D01*
X90016Y477354D01*
X90196Y477333D01*
X90397Y477291D01*
X90597Y477227D01*
X90798Y477154D01*
X90809D01*
X90819Y477143D01*
X90883Y477111D01*
X90978Y477058D01*
X91105Y476995D01*
X91231Y476900D01*
X91369Y476805D01*
X91496Y476688D01*
X91601Y476551D01*
X91612Y476530D01*
X91643Y476488D01*
X91686Y476403D01*
X91749Y476298D01*
X91813Y476171D01*
X91865Y476023D01*
X91929Y475854D01*
X91971Y475664D01*
Y475653D01*
X91982Y475600D01*
X91992Y475516D01*
X92013Y475399D01*
X92024Y475241D01*
Y475146D01*
X92035Y475040D01*
Y474924D01*
X92045Y474787D01*
Y474649D01*
Y474501D01*
Y470159D01*
X90851D01*
Y474459D01*
Y474470D01*
Y474491D01*
Y474533D01*
Y474575D01*
Y474639D01*
X90841Y474713D01*
X90830Y474871D01*
X90819Y475051D01*
X90788Y475230D01*
X90756Y475399D01*
X90703Y475547D01*
X90693Y475569D01*
X90671Y475611D01*
X90640Y475674D01*
X90587Y475759D01*
X90524Y475854D01*
X90439Y475949D01*
X90333Y476044D01*
X90206Y476129D01*
X90196Y476139D01*
X90143Y476160D01*
X90069Y476203D01*
X89974Y476245D01*
X89847Y476276D01*
X89710Y476319D01*
X89551Y476340D01*
X89372Y476350D01*
X89298D01*
X89245Y476340D01*
X89182D01*
X89097Y476329D01*
X88917Y476287D01*
X88717Y476234D01*
X88495Y476150D01*
X88273Y476023D01*
X88157Y475949D01*
X88051Y475864D01*
X88040Y475854D01*
X88030Y475843D01*
X87998Y475812D01*
X87966Y475769D01*
X87924Y475706D01*
X87882Y475643D01*
X87829Y475558D01*
X87776Y475452D01*
X87723Y475336D01*
X87671Y475199D01*
X87628Y475051D01*
X87586Y474882D01*
X87554Y474692D01*
X87523Y474491D01*
X87512Y474258D01*
X87501Y474015D01*
Y470159D01*
X86307D01*
Y477227D01*
X87385D01*
Y476213D01*
X87396Y476224D01*
X87417Y476266D01*
X87470Y476319D01*
X87533Y476393D01*
X87607Y476488D01*
X87702Y476583D01*
X87818Y476688D01*
X87956Y476805D01*
X88104Y476910D01*
X88273Y477016D01*
X88453Y477111D01*
X88653Y477206D01*
X88875Y477280D01*
X89108Y477333D01*
X89361Y477375D01*
X89625Y477386D01*
X89731D01*
X89794Y477375D01*
D02*
G37*
G36*
X114372Y470159D02*
X113231D01*
X110557Y477227D01*
X111825D01*
X113347Y472990D01*
Y472980D01*
X113357Y472959D01*
X113368Y472927D01*
X113389Y472874D01*
X113410Y472811D01*
X113431Y472737D01*
X113495Y472557D01*
X113569Y472346D01*
X113643Y472103D01*
X113717Y471839D01*
X113801Y471564D01*
Y471574D01*
X113812Y471585D01*
X113822Y471617D01*
X113833Y471659D01*
X113843Y471722D01*
X113865Y471786D01*
X113918Y471944D01*
X113981Y472134D01*
X114055Y472367D01*
X114139Y472621D01*
X114245Y472906D01*
X115820Y477227D01*
X117056D01*
X114372Y470159D01*
D02*
G37*
G36*
X106933Y477375D02*
X107028D01*
X107229Y477354D01*
X107461Y477333D01*
X107704Y477291D01*
X107948Y477238D01*
X108169Y477164D01*
X108180D01*
X108190Y477154D01*
X108222Y477143D01*
X108265Y477122D01*
X108360Y477080D01*
X108486Y477016D01*
X108624Y476942D01*
X108761Y476847D01*
X108888Y476741D01*
X109004Y476625D01*
X109015Y476615D01*
X109046Y476572D01*
X109099Y476498D01*
X109152Y476403D01*
X109215Y476287D01*
X109279Y476150D01*
X109342Y475991D01*
X109384Y475812D01*
Y475801D01*
X109395Y475748D01*
X109406Y475674D01*
X109416Y475558D01*
X109427Y475410D01*
X109437Y475220D01*
Y475104D01*
X109448Y474987D01*
Y474860D01*
Y474713D01*
Y473117D01*
Y473096D01*
Y473043D01*
Y472959D01*
Y472853D01*
Y472716D01*
Y472568D01*
X109459Y472399D01*
Y472229D01*
X109469Y471870D01*
Y471691D01*
X109480Y471522D01*
X109490Y471363D01*
X109501Y471226D01*
X109511Y471099D01*
X109522Y471004D01*
Y470983D01*
X109532Y470930D01*
X109554Y470845D01*
X109585Y470729D01*
X109628Y470602D01*
X109680Y470465D01*
X109744Y470306D01*
X109818Y470159D01*
X108571D01*
X108560Y470180D01*
X108539Y470222D01*
X108507Y470306D01*
X108476Y470412D01*
X108434Y470539D01*
X108391Y470687D01*
X108360Y470856D01*
X108338Y471046D01*
X108328Y471035D01*
X108307Y471025D01*
X108275Y470993D01*
X108222Y470951D01*
X108159Y470909D01*
X108095Y470845D01*
X107926Y470729D01*
X107726Y470592D01*
X107514Y470454D01*
X107282Y470338D01*
X107049Y470233D01*
X107039D01*
X107018Y470222D01*
X106986Y470211D01*
X106944Y470201D01*
X106891Y470180D01*
X106817Y470159D01*
X106658Y470116D01*
X106458Y470074D01*
X106236Y470032D01*
X105993Y470011D01*
X105729Y470000D01*
X105612D01*
X105538Y470011D01*
X105443Y470021D01*
X105327Y470032D01*
X105200Y470042D01*
X105073Y470074D01*
X104778Y470137D01*
X104482Y470233D01*
X104344Y470296D01*
X104196Y470380D01*
X104070Y470465D01*
X103943Y470560D01*
X103932Y470571D01*
X103911Y470592D01*
X103890Y470623D01*
X103848Y470666D01*
X103795Y470718D01*
X103742Y470793D01*
X103689Y470866D01*
X103636Y470961D01*
X103520Y471162D01*
X103414Y471416D01*
X103372Y471553D01*
X103351Y471701D01*
X103330Y471860D01*
X103319Y472018D01*
Y472029D01*
Y472039D01*
Y472103D01*
X103330Y472208D01*
X103351Y472335D01*
X103372Y472483D01*
X103414Y472642D01*
X103478Y472800D01*
X103552Y472969D01*
X103562Y472990D01*
X103594Y473043D01*
X103647Y473117D01*
X103721Y473223D01*
X103806Y473328D01*
X103911Y473445D01*
X104027Y473550D01*
X104165Y473656D01*
X104186Y473666D01*
X104239Y473698D01*
X104313Y473751D01*
X104418Y473804D01*
X104545Y473867D01*
X104693Y473931D01*
X104862Y473994D01*
X105031Y474047D01*
X105052D01*
X105095Y474068D01*
X105179Y474079D01*
X105295Y474110D01*
X105443Y474132D01*
X105633Y474163D01*
X105845Y474195D01*
X106098Y474227D01*
X106119D01*
X106162Y474237D01*
X106236Y474248D01*
X106331Y474258D01*
X106458Y474279D01*
X106595Y474300D01*
X106743Y474322D01*
X106912Y474343D01*
X107261Y474406D01*
X107609Y474480D01*
X107778Y474522D01*
X107948Y474565D01*
X108095Y474607D01*
X108233Y474649D01*
Y474660D01*
Y474692D01*
Y474734D01*
X108243Y474776D01*
Y474882D01*
Y474924D01*
Y474956D01*
Y474966D01*
Y474987D01*
Y475030D01*
Y475072D01*
X108222Y475199D01*
X108201Y475357D01*
X108159Y475526D01*
X108095Y475695D01*
X108011Y475854D01*
X107895Y475981D01*
X107873Y476002D01*
X107852Y476023D01*
X107810Y476044D01*
X107757Y476076D01*
X107704Y476107D01*
X107556Y476192D01*
X107366Y476266D01*
X107134Y476329D01*
X106859Y476371D01*
X106542Y476393D01*
X106405D01*
X106331Y476382D01*
X106257D01*
X106067Y476361D01*
X105866Y476319D01*
X105665Y476266D01*
X105464Y476192D01*
X105295Y476097D01*
X105274Y476086D01*
X105232Y476044D01*
X105158Y475959D01*
X105073Y475854D01*
X104978Y475716D01*
X104873Y475526D01*
X104788Y475315D01*
X104746Y475188D01*
X104704Y475051D01*
X103531Y475209D01*
Y475220D01*
X103541Y475241D01*
X103552Y475283D01*
X103562Y475336D01*
X103584Y475399D01*
X103605Y475473D01*
X103658Y475643D01*
X103731Y475833D01*
X103816Y476033D01*
X103922Y476234D01*
X104049Y476414D01*
Y476424D01*
X104070Y476435D01*
X104122Y476488D01*
X104207Y476572D01*
X104323Y476678D01*
X104471Y476794D01*
X104651Y476910D01*
X104862Y477027D01*
X105105Y477132D01*
X105116D01*
X105137Y477143D01*
X105179Y477154D01*
X105232Y477175D01*
X105295Y477196D01*
X105369Y477217D01*
X105464Y477238D01*
X105570Y477259D01*
X105676Y477280D01*
X105802Y477301D01*
X106077Y477344D01*
X106384Y477375D01*
X106711Y477386D01*
X106859D01*
X106933Y477375D01*
D02*
G37*
G36*
X98702Y479901D02*
X98818D01*
X98955Y479890D01*
X99114Y479880D01*
X99431Y479848D01*
X99759Y479795D01*
X100076Y479732D01*
X100213Y479689D01*
X100350Y479647D01*
X100361D01*
X100382Y479637D01*
X100414Y479615D01*
X100466Y479594D01*
X100593Y479531D01*
X100741Y479436D01*
X100921Y479309D01*
X101101Y479140D01*
X101280Y478950D01*
X101439Y478717D01*
Y478707D01*
X101460Y478686D01*
X101481Y478654D01*
X101502Y478601D01*
X101534Y478538D01*
X101565Y478464D01*
X101608Y478379D01*
X101650Y478284D01*
X101724Y478062D01*
X101787Y477819D01*
X101830Y477544D01*
X101851Y477249D01*
Y477238D01*
Y477206D01*
Y477143D01*
X101840Y477080D01*
X101830Y476984D01*
X101819Y476879D01*
X101798Y476763D01*
X101766Y476636D01*
X101682Y476361D01*
X101629Y476213D01*
X101565Y476065D01*
X101491Y475917D01*
X101396Y475769D01*
X101291Y475632D01*
X101174Y475494D01*
X101164Y475484D01*
X101143Y475463D01*
X101101Y475431D01*
X101048Y475378D01*
X100974Y475326D01*
X100889Y475262D01*
X100784Y475188D01*
X100657Y475114D01*
X100519Y475040D01*
X100371Y474966D01*
X100202Y474892D01*
X100012Y474818D01*
X99811Y474755D01*
X99590Y474692D01*
X99346Y474639D01*
X99093Y474596D01*
X99103D01*
X99114Y474586D01*
X99177Y474554D01*
X99272Y474501D01*
X99389Y474438D01*
X99515Y474364D01*
X99642Y474290D01*
X99769Y474195D01*
X99875Y474110D01*
X99885Y474100D01*
X99896Y474089D01*
X99928Y474058D01*
X99970Y474015D01*
X100023Y473962D01*
X100086Y473899D01*
X100223Y473751D01*
X100382Y473561D01*
X100562Y473339D01*
X100752Y473085D01*
X100942Y472811D01*
X102633Y470159D01*
X101016D01*
X99727Y472187D01*
X99716Y472198D01*
X99706Y472229D01*
X99674Y472272D01*
X99632Y472335D01*
X99590Y472409D01*
X99526Y472494D01*
X99399Y472684D01*
X99251Y472906D01*
X99103Y473128D01*
X98945Y473339D01*
X98797Y473529D01*
Y473540D01*
X98776Y473550D01*
X98734Y473603D01*
X98670Y473688D01*
X98575Y473783D01*
X98480Y473888D01*
X98364Y473994D01*
X98247Y474100D01*
X98142Y474174D01*
X98131Y474184D01*
X98089Y474205D01*
X98036Y474237D01*
X97962Y474279D01*
X97867Y474322D01*
X97772Y474364D01*
X97666Y474406D01*
X97550Y474438D01*
X97540D01*
X97508Y474449D01*
X97455Y474459D01*
X97381Y474470D01*
X97275D01*
X97149Y474480D01*
X97001Y474491D01*
X95342D01*
Y470159D01*
X94053D01*
Y479911D01*
X98586D01*
X98702Y479901D01*
D02*
G37*
G36*
X84458Y478759D02*
X78689D01*
Y475780D01*
X84089D01*
Y474628D01*
X78689D01*
Y471310D01*
X84680D01*
Y470159D01*
X77400D01*
Y479911D01*
X84458D01*
Y478759D01*
D02*
G37*
%LPC*%
G36*
X144618Y478738D02*
Y478728D01*
X144607Y478696D01*
X144596Y478643D01*
X144586Y478580D01*
X144565Y478485D01*
X144544Y478390D01*
X144512Y478274D01*
X144480Y478147D01*
X144448Y478009D01*
X144406Y477861D01*
X144311Y477544D01*
X144206Y477206D01*
X144089Y476858D01*
X143012Y473994D01*
X146340D01*
X145315Y476699D01*
Y476710D01*
X145294Y476752D01*
X145273Y476815D01*
X145241Y476910D01*
X145199Y477006D01*
X145156Y477132D01*
X145104Y477270D01*
X145051Y477418D01*
X144945Y477745D01*
X144829Y478083D01*
X144713Y478421D01*
X144618Y478738D01*
D02*
G37*
G36*
X135562Y478601D02*
X133428D01*
Y475653D01*
X135742D01*
X135826Y475664D01*
X136006D01*
X136207Y475674D01*
X136418Y475695D01*
X136608Y475727D01*
X136693Y475738D01*
X136767Y475759D01*
X136777D01*
X136788Y475769D01*
X136851Y475790D01*
X136936Y475822D01*
X137042Y475875D01*
X137158Y475938D01*
X137284Y476023D01*
X137401Y476129D01*
X137506Y476245D01*
X137517Y476266D01*
X137549Y476308D01*
X137591Y476382D01*
X137633Y476477D01*
X137675Y476604D01*
X137718Y476752D01*
X137749Y476910D01*
X137760Y477101D01*
Y477111D01*
Y477122D01*
Y477185D01*
X137749Y477270D01*
X137728Y477386D01*
X137697Y477523D01*
X137654Y477671D01*
X137601Y477819D01*
X137517Y477957D01*
X137506Y477978D01*
X137475Y478020D01*
X137422Y478083D01*
X137348Y478157D01*
X137253Y478242D01*
X137137Y478326D01*
X137010Y478400D01*
X136851Y478464D01*
X136830Y478474D01*
X136809D01*
X136767Y478485D01*
X136725Y478495D01*
X136661Y478506D01*
X136587Y478517D01*
X136513Y478538D01*
X136418Y478548D01*
X136302Y478559D01*
X136186Y478569D01*
X136048Y478580D01*
X135900Y478591D01*
X135742D01*
X135562Y478601D01*
D02*
G37*
G36*
X135678Y474501D02*
X133428D01*
Y471152D01*
X136069D01*
X136207Y471162D01*
X136344D01*
X136492Y471173D01*
X136629Y471183D01*
X136735Y471194D01*
X136756D01*
X136809Y471205D01*
X136894Y471226D01*
X136999Y471257D01*
X137115Y471289D01*
X137232Y471342D01*
X137359Y471395D01*
X137475Y471458D01*
X137485Y471469D01*
X137528Y471490D01*
X137580Y471532D01*
X137654Y471595D01*
X137728Y471670D01*
X137813Y471765D01*
X137897Y471870D01*
X137971Y471997D01*
X137982Y472018D01*
X138003Y472060D01*
X138035Y472134D01*
X138077Y472240D01*
X138109Y472356D01*
X138140Y472494D01*
X138161Y472652D01*
X138172Y472821D01*
Y472832D01*
Y472842D01*
Y472874D01*
Y472916D01*
X138161Y473011D01*
X138140Y473149D01*
X138098Y473297D01*
X138056Y473455D01*
X137982Y473614D01*
X137887Y473772D01*
X137876Y473793D01*
X137834Y473836D01*
X137771Y473910D01*
X137686Y473994D01*
X137570Y474089D01*
X137432Y474174D01*
X137284Y474258D01*
X137105Y474332D01*
X137094D01*
X137084Y474343D01*
X137052Y474353D01*
X137010Y474364D01*
X136957Y474375D01*
X136904Y474385D01*
X136830Y474406D01*
X136746Y474417D01*
X136640Y474438D01*
X136534Y474449D01*
X136418Y474459D01*
X136291Y474480D01*
X136006Y474491D01*
X135678Y474501D01*
D02*
G37*
G36*
X108243Y473709D02*
X108233D01*
X108212Y473698D01*
X108169Y473688D01*
X108117Y473666D01*
X108053Y473635D01*
X107969Y473614D01*
X107863Y473582D01*
X107757Y473550D01*
X107620Y473519D01*
X107472Y473476D01*
X107313Y473445D01*
X107134Y473402D01*
X106944Y473360D01*
X106743Y473328D01*
X106521Y473286D01*
X106278Y473255D01*
X106246D01*
X106204Y473244D01*
X106162Y473233D01*
X106024Y473212D01*
X105866Y473181D01*
X105697Y473149D01*
X105528Y473106D01*
X105369Y473064D01*
X105232Y473011D01*
X105221Y473001D01*
X105179Y472990D01*
X105126Y472959D01*
X105063Y472916D01*
X104978Y472853D01*
X104904Y472789D01*
X104830Y472716D01*
X104756Y472621D01*
X104746Y472610D01*
X104735Y472578D01*
X104704Y472525D01*
X104683Y472451D01*
X104651Y472367D01*
X104619Y472272D01*
X104608Y472166D01*
X104598Y472050D01*
Y472029D01*
X104608Y471976D01*
X104619Y471881D01*
X104640Y471775D01*
X104683Y471648D01*
X104746Y471511D01*
X104841Y471384D01*
X104957Y471257D01*
X104978Y471247D01*
X105021Y471205D01*
X105105Y471162D01*
X105221Y471099D01*
X105369Y471046D01*
X105560Y470993D01*
X105771Y470951D01*
X106014Y470940D01*
X106130D01*
X106194Y470951D01*
X106267Y470961D01*
X106426Y470983D01*
X106627Y471014D01*
X106827Y471067D01*
X107039Y471141D01*
X107250Y471236D01*
X107261D01*
X107271Y471247D01*
X107335Y471289D01*
X107430Y471363D01*
X107556Y471458D01*
X107683Y471574D01*
X107810Y471722D01*
X107937Y471881D01*
X108043Y472071D01*
X108053Y472092D01*
X108074Y472145D01*
X108106Y472240D01*
X108138Y472367D01*
X108169Y472536D01*
X108201Y472747D01*
X108222Y472990D01*
X108233Y473265D01*
X108243Y473709D01*
D02*
G37*
G36*
X98628Y478834D02*
X95342D01*
Y475611D01*
X98258D01*
X98332Y475621D01*
X98417D01*
X98617Y475632D01*
X98839Y475653D01*
X99072Y475685D01*
X99294Y475727D01*
X99494Y475790D01*
X99505D01*
X99515Y475801D01*
X99579Y475822D01*
X99663Y475864D01*
X99780Y475928D01*
X99896Y476012D01*
X100023Y476107D01*
X100149Y476234D01*
X100255Y476371D01*
X100266Y476393D01*
X100297Y476446D01*
X100340Y476520D01*
X100393Y476636D01*
X100435Y476763D01*
X100477Y476910D01*
X100509Y477080D01*
X100519Y477249D01*
Y477259D01*
Y477280D01*
Y477312D01*
X100509Y477365D01*
Y477418D01*
X100498Y477492D01*
X100456Y477650D01*
X100393Y477830D01*
X100308Y478020D01*
X100181Y478200D01*
X100097Y478295D01*
X100012Y478379D01*
X100002Y478390D01*
X99991Y478400D01*
X99959Y478421D01*
X99917Y478453D01*
X99864Y478485D01*
X99790Y478527D01*
X99716Y478569D01*
X99621Y478612D01*
X99515Y478654D01*
X99399Y478686D01*
X99272Y478728D01*
X99135Y478759D01*
X98977Y478791D01*
X98807Y478812D01*
X98628Y478834D01*
D02*
G37*
%LPD*%
D10*
X676400Y355600D02*
G03*
X676400Y355600I-15999J0D01*
G01*
X168400Y508000D02*
G03*
X168400Y508000I-15999J0D01*
G01*
X660400Y0D02*
Y12700D01*
X685800Y38100D01*
Y381000D01*
X660400Y406400D02*
X685800Y381000D01*
X660400Y406400D02*
Y508000D01*
X635000Y533400D02*
X660400Y508000D01*
X0Y0D02*
Y533400D01*
Y0D02*
X660400D01*
X0Y533400D02*
X635000Y533400D01*
D11*
X523008Y190000D02*
D03*
X506992D02*
D03*
X523008Y125000D02*
D03*
X506992D02*
D03*
X523008Y255000D02*
D03*
X506992D02*
D03*
X539750Y444500D02*
D03*
X523734D02*
D03*
X539750Y393700D02*
D03*
X523734D02*
D03*
X539750Y317500D02*
D03*
X523734D02*
D03*
X539750Y368300D02*
D03*
X523734D02*
D03*
X145492Y323850D02*
D03*
X161508D02*
D03*
D12*
X114300Y271392D02*
D03*
Y287408D02*
D03*
X196850Y288392D02*
D03*
Y304408D02*
D03*
D13*
X153500Y296400D02*
D03*
X158500D02*
D03*
X163500D02*
D03*
Y262900D02*
D03*
X158500D02*
D03*
X153500D02*
D03*
D14*
X175250Y289650D02*
D03*
Y284650D02*
D03*
Y279650D02*
D03*
Y274650D02*
D03*
Y269650D02*
D03*
X141750D02*
D03*
Y274650D02*
D03*
Y279650D02*
D03*
Y284650D02*
D03*
Y289650D02*
D03*
D15*
X68700Y470000D02*
Y520000D01*
Y490000D02*
X87450Y508750D01*
X68700Y502500D02*
X79831Y515149D01*
X95342Y340000D02*
X161508D01*
X95342Y287408D02*
X114300D01*
X161508Y340000D02*
X477520D01*
X196850Y304408D02*
Y339350D01*
X506992Y101008D02*
Y125000D01*
Y101008D02*
X508000Y100000D01*
X480000Y190000D02*
X506992D01*
X477520Y192480D02*
X480000Y190000D01*
X506972Y254980D02*
X506992Y255000D01*
X477520Y254980D02*
X506972D01*
X161508Y323850D02*
Y340000D01*
D30*
X146050Y152400D02*
Y163550D01*
X150000Y167500D01*
X235000D01*
X247650Y312500D02*
X497500D01*
X541408Y317500D02*
X596900D01*
X523008Y255000D02*
X524008Y254000D01*
X641350D01*
X523008Y190000D02*
X523508Y190500D01*
X641350D01*
X523008Y125000D02*
X523738Y125730D01*
X641350D01*
X541408Y368300D02*
X596900D01*
X539750Y393700D02*
X596900D01*
X541408Y444500D02*
X596900D01*
X330200Y425450D02*
X501650D01*
X508000Y431800D01*
Y461010D01*
X516890Y469900D01*
X577850D01*
X584200Y476250D02*
Y508000D01*
X577850Y469900D02*
X584200Y476250D01*
X391160Y454660D02*
Y508000D01*
X381000Y444500D02*
X391160Y454660D01*
X133350Y444500D02*
X381000D01*
X120650Y431800D02*
X133350Y444500D01*
X120650Y406400D02*
Y431800D01*
X247650Y406400D02*
Y431800D01*
X254000Y438150D01*
X450850D01*
X457200Y444500D01*
Y508000D01*
X482600Y444500D02*
Y508000D01*
X469900Y431800D02*
X482600Y444500D01*
X279400Y431800D02*
X469900D01*
X273050Y425450D02*
X279400Y431800D01*
X273050Y406400D02*
Y425450D01*
X323850Y406400D02*
Y419100D01*
X330200Y425450D01*
D31*
X115500Y177500D02*
X268050D01*
X273050Y172500D01*
X102500Y190500D02*
X115500Y177500D01*
X523008Y255000D02*
Y266492D01*
X514500Y275000D02*
X523008Y266492D01*
X374650Y275000D02*
X514500D01*
X352500Y292500D02*
X522500D01*
X523008Y107500D02*
Y125000D01*
Y190000D02*
Y234492D01*
X515950Y241550D02*
X523008Y234492D01*
X299050Y241550D02*
X515950D01*
X172500Y352500D02*
X172500D01*
X172500D02*
X175000Y355000D01*
X508100D01*
X512500Y350600D01*
Y320000D02*
Y350600D01*
Y320000D02*
X515000Y317500D01*
X523734D01*
X506200Y368300D02*
X523734D01*
X500400Y362500D02*
X506200Y368300D01*
X165000Y362500D02*
X500400D01*
X152500Y350000D02*
X165000Y362500D01*
X127000Y350000D02*
X152500D01*
X110000Y360000D02*
X151040D01*
X510000Y380000D02*
X512500Y377500D01*
X151040Y360000D02*
X163540Y372500D01*
X497500D01*
X505000Y380000D01*
X510000D01*
X337500Y212500D02*
X450790D01*
X512500Y377500D02*
X515000Y380000D01*
Y415000D02*
Y442500D01*
X517000Y444500D01*
X523734D01*
X152400Y42500D02*
Y114750D01*
X152650Y115000D01*
X50800Y29200D02*
Y42500D01*
Y29200D02*
X57500Y22500D01*
X235000D01*
X247650Y35150D01*
Y117350D01*
X273050Y152400D02*
Y172500D01*
X102500Y257500D02*
Y276907D01*
X171450Y391050D02*
Y406400D01*
Y391050D02*
X177500Y385000D01*
X497500D01*
X506200Y393700D01*
X523734D01*
X175250Y279650D02*
X192500D01*
X196850Y275300D01*
Y267500D02*
Y275300D01*
X102500Y276907D02*
X104993Y279400D01*
X125000D01*
X129750Y274650D01*
X141750D01*
X161508Y312500D02*
X163500Y310508D01*
Y296400D02*
Y310508D01*
X161508Y312500D02*
Y323850D01*
X158500Y309492D02*
X161508Y312500D01*
X158500Y296400D02*
Y309492D01*
X114300Y287408D02*
X130000D01*
X132242Y289650D01*
X141750D01*
X114300Y271392D02*
X116042Y269650D01*
X141750D01*
X145492Y314508D02*
Y323850D01*
Y314508D02*
X153500Y306500D01*
Y296400D02*
Y306500D01*
X195592Y289650D02*
X196850Y288392D01*
X175250Y289650D02*
X195592D01*
X167500D02*
X175250D01*
X167500Y284650D02*
Y289650D01*
Y284650D02*
X175250D01*
X167500Y276907D02*
Y284650D01*
Y276907D02*
X169757Y274650D01*
X175250D01*
X167500Y240000D02*
X220000D01*
X163500Y244000D02*
X167500Y240000D01*
X158500Y228008D02*
Y262900D01*
X153500Y216500D02*
Y262900D01*
X158500Y228008D02*
X161508Y225000D01*
X153500Y216500D02*
X158540Y211460D01*
X161508Y225000D02*
X311310D01*
X163500Y244000D02*
Y262900D01*
X158540Y211460D02*
X336460D01*
X337500Y212500D01*
X450790D02*
X450850D01*
D32*
X33900Y454660D02*
X145000D01*
X19050Y469510D02*
X33900Y454660D01*
X145000D02*
X257810D01*
X19050Y469510D02*
Y492500D01*
X257810Y454660D02*
X264160Y461010D01*
X196850Y288392D02*
X210000D01*
X381000Y25400D02*
Y78500D01*
X387500Y85000D01*
X462500D01*
X214199Y187500D02*
X462500D01*
X214159Y187460D02*
X214199Y187500D01*
X128190Y187460D02*
X214159D01*
X110650Y205000D02*
X128190Y187460D01*
X20000Y205000D02*
X110650D01*
X114300Y222500D02*
X120000D01*
X145000Y197500D01*
X210000D01*
Y287500D02*
Y288392D01*
X77500Y323850D02*
X145492D01*
X77500Y372500D02*
X142500D01*
X146050Y376050D02*
Y406400D01*
X142500Y372500D02*
X146050Y376050D01*
X77500Y222500D02*
X114300D01*
Y271392D01*
X596900Y419100D02*
X615900D01*
X620000Y415000D01*
Y340000D02*
Y415000D01*
X596900Y342900D02*
X617100D01*
X620000Y340000D01*
Y315000D02*
Y340000D01*
Y315000D02*
X627500Y307500D01*
X660000D01*
X667500Y300000D01*
Y276900D02*
Y300000D01*
Y207500D02*
Y276900D01*
Y155000D02*
Y207500D01*
X659100Y215900D02*
X667500Y207500D01*
X641350Y215900D02*
X659100D01*
X641350Y279400D02*
X665000D01*
X667500Y276900D01*
X663630Y151130D02*
X667500Y155000D01*
X641350Y151130D02*
X663630D01*
X406400Y25400D02*
X431800D01*
X476250Y152400D02*
X477520Y151130D01*
X641350D01*
X85850Y133350D02*
X330200D01*
X76200Y123700D02*
X85850Y133350D01*
X76200Y42500D02*
Y123700D01*
X438150Y44450D02*
X469900D01*
X476250Y50800D02*
Y133350D01*
X469900Y44450D02*
X476250Y50800D01*
Y133350D02*
Y152400D01*
X323850Y139700D02*
Y152400D01*
Y139700D02*
X330200Y133350D01*
X476250D01*
X431800Y38100D02*
X438150Y44450D01*
X431800Y25400D02*
Y38100D01*
X264160Y461010D02*
Y508000D01*
D33*
X19050Y492500D02*
D03*
X152400Y42500D02*
D03*
X177800D02*
D03*
X203200D02*
D03*
X50800D02*
D03*
X76200D02*
D03*
X101600D02*
D03*
X596900Y444500D02*
D03*
Y342900D02*
D03*
Y368300D02*
D03*
Y393700D02*
D03*
Y419100D02*
D03*
X641350Y151130D02*
D03*
Y215900D02*
D03*
Y279400D02*
D03*
D34*
X44450Y492500D02*
D03*
X127000Y42500D02*
D03*
X25400D02*
D03*
D35*
X596900Y317500D02*
D03*
X641350Y125730D02*
D03*
Y190500D02*
D03*
Y254000D02*
D03*
D36*
X19050Y152400D02*
D03*
X44450D02*
D03*
X69850D02*
D03*
X95250D02*
D03*
X120650D02*
D03*
X146050D02*
D03*
X171450D02*
D03*
X196850D02*
D03*
X222250D02*
D03*
X247650D02*
D03*
X273050D02*
D03*
X298450D02*
D03*
X323850D02*
D03*
X349250D02*
D03*
X374650D02*
D03*
X400050D02*
D03*
X425450D02*
D03*
X450850D02*
D03*
X476250D02*
D03*
X19050Y406400D02*
D03*
X44450D02*
D03*
X69850D02*
D03*
X95250D02*
D03*
X120650D02*
D03*
X146050D02*
D03*
X171450D02*
D03*
X196850D02*
D03*
X222250D02*
D03*
X247650D02*
D03*
X273050D02*
D03*
X298450D02*
D03*
X323850D02*
D03*
X349250D02*
D03*
X374650D02*
D03*
X400050D02*
D03*
X425450D02*
D03*
X450850D02*
D03*
D37*
X476250D02*
D03*
D38*
X660400Y355600D02*
D03*
X152400Y508000D02*
D03*
D39*
X406400Y25400D02*
D03*
X431800D02*
D03*
X279400D02*
D03*
X304800D02*
D03*
X330200D02*
D03*
X355600D02*
D03*
X381000D02*
D03*
X584200Y508000D02*
D03*
X609600D02*
D03*
X457200D02*
D03*
X482600D02*
D03*
X508000D02*
D03*
X533400D02*
D03*
X558800D02*
D03*
X187960D02*
D03*
X213360D02*
D03*
X238760D02*
D03*
X264160D02*
D03*
X289560D02*
D03*
X314960D02*
D03*
X340360D02*
D03*
X365760D02*
D03*
X391160D02*
D03*
X635000Y25400D02*
D03*
X609600D02*
D03*
X584200D02*
D03*
X558800D02*
D03*
X533400D02*
D03*
D40*
X457200D02*
D03*
X635000Y508000D02*
D03*
X416560D02*
D03*
X508000Y25400D02*
D03*
D41*
X235000Y167500D02*
D03*
X247650Y312500D02*
D03*
X497500D02*
D03*
X145000Y454660D02*
D03*
X462500Y85000D02*
D03*
Y187500D02*
D03*
X374650Y275000D02*
D03*
X352500Y292500D02*
D03*
X522500D02*
D03*
X523008Y107500D02*
D03*
X299050Y241550D02*
D03*
X20000Y205000D02*
D03*
X210000Y197500D02*
D03*
Y287500D02*
D03*
X172500Y352500D02*
D03*
X127000Y350000D02*
D03*
X110000Y360000D02*
D03*
X77500Y323850D02*
D03*
X95342Y340000D02*
D03*
Y287408D02*
D03*
X515000Y380000D02*
D03*
Y415000D02*
D03*
X77500Y222500D02*
D03*
Y372500D02*
D03*
X152650Y115000D02*
D03*
X247650Y117350D02*
D03*
X102500Y190500D02*
D03*
Y257500D02*
D03*
X508000Y100000D02*
D03*
X477520Y192480D02*
D03*
Y254980D02*
D03*
Y340000D02*
D03*
X196850Y267500D02*
D03*
X220000Y240000D02*
D03*
X311310Y225000D02*
D03*
X450790Y212500D02*
D03*
X337500D02*
D03*
M02*
