G04*
G04 #@! TF.GenerationSoftware,Altium Limited,Altium Designer,19.0.15 (446)*
G04*
G04 Layer_Color=128*
%FSLAX44Y44*%
%MOMM*%
G71*
G01*
G75*
%ADD10C,0.1270*%
D10*
X676400Y355600D02*
G03*
X676400Y355600I-15999J0D01*
G01*
X168400Y508000D02*
G03*
X168400Y508000I-15999J0D01*
G01*
X660400Y0D02*
Y12700D01*
X685800Y38100D01*
Y381000D01*
X660400Y406400D02*
X685800Y381000D01*
X660400Y406400D02*
Y508000D01*
X635000Y533400D02*
X660400Y508000D01*
X0Y0D02*
Y533400D01*
Y0D02*
X660400D01*
X0Y533400D02*
X635000Y533400D01*
X13970Y492500D02*
X24130D01*
X19050Y487420D02*
Y497580D01*
X39370Y492500D02*
X49530D01*
X44450Y487420D02*
Y497580D01*
X121920Y42500D02*
X132080D01*
X127000Y37420D02*
Y47580D01*
X147320Y42500D02*
X157480D01*
X152400Y37420D02*
Y47580D01*
X172720Y42500D02*
X182880D01*
X177800Y37420D02*
Y47580D01*
X198120Y42500D02*
X208280D01*
X203200Y37420D02*
Y47580D01*
X20320Y42500D02*
X30480D01*
X25400Y37420D02*
Y47580D01*
X45720Y42500D02*
X55880D01*
X50800Y37420D02*
Y47580D01*
X71120Y42500D02*
X81280D01*
X76200Y37420D02*
Y47580D01*
X96520Y42500D02*
X106680D01*
X101600Y37420D02*
Y47580D01*
X591820Y444500D02*
X601980D01*
X596900Y439420D02*
Y449580D01*
X591820Y317500D02*
X601980D01*
X596900Y312420D02*
Y322580D01*
X591820Y342900D02*
X601980D01*
X596900Y337820D02*
Y347980D01*
X591820Y368300D02*
X601980D01*
X596900Y363220D02*
Y373380D01*
X591820Y393700D02*
X601980D01*
X596900Y388620D02*
Y398780D01*
X591820Y419100D02*
X601980D01*
X596900Y414020D02*
Y424180D01*
X14050Y152400D02*
X24050D01*
X19050Y147400D02*
Y157400D01*
X39450Y152400D02*
X49450D01*
X44450Y147400D02*
Y157400D01*
X64850Y152400D02*
X74850D01*
X69850Y147400D02*
Y157400D01*
X90250Y152400D02*
X100250D01*
X95250Y147400D02*
Y157400D01*
X115650Y152400D02*
X125650D01*
X120650Y147400D02*
Y157400D01*
X141050Y152400D02*
X151050D01*
X146050Y147400D02*
Y157400D01*
X166450Y152400D02*
X176450D01*
X171450Y147400D02*
Y157400D01*
X191850Y152400D02*
X201850D01*
X196850Y147400D02*
Y157400D01*
X217250Y152400D02*
X227250D01*
X222250Y147400D02*
Y157400D01*
X242650Y152400D02*
X252650D01*
X247650Y147400D02*
Y157400D01*
X268050Y152400D02*
X278050D01*
X273050Y147400D02*
Y157400D01*
X293450Y152400D02*
X303450D01*
X298450Y147400D02*
Y157400D01*
X318850Y152400D02*
X328850D01*
X323850Y147400D02*
Y157400D01*
X344250Y152400D02*
X354250D01*
X349250Y147400D02*
Y157400D01*
X369650Y152400D02*
X379650D01*
X374650Y147400D02*
Y157400D01*
X395050Y152400D02*
X405050D01*
X400050Y147400D02*
Y157400D01*
X420450Y152400D02*
X430450D01*
X425450Y147400D02*
Y157400D01*
X445850Y152400D02*
X455850D01*
X450850Y147400D02*
Y157400D01*
X471250Y152400D02*
X481250D01*
X476250Y147400D02*
Y157400D01*
X14050Y406400D02*
X24050D01*
X19050Y401400D02*
Y411400D01*
X39450Y406400D02*
X49450D01*
X44450Y401400D02*
Y411400D01*
X64850Y406400D02*
X74850D01*
X69850Y401400D02*
Y411400D01*
X90250Y406400D02*
X100250D01*
X95250Y401400D02*
Y411400D01*
X115650Y406400D02*
X125650D01*
X120650Y401400D02*
Y411400D01*
X141050Y406400D02*
X151050D01*
X146050Y401400D02*
Y411400D01*
X166450Y406400D02*
X176450D01*
X171450Y401400D02*
Y411400D01*
X191850Y406400D02*
X201850D01*
X196850Y401400D02*
Y411400D01*
X217250Y406400D02*
X227250D01*
X222250Y401400D02*
Y411400D01*
X242650Y406400D02*
X252650D01*
X247650Y401400D02*
Y411400D01*
X268050Y406400D02*
X278050D01*
X273050Y401400D02*
Y411400D01*
X293450Y406400D02*
X303450D01*
X298450Y401400D02*
Y411400D01*
X318850Y406400D02*
X328850D01*
X323850Y401400D02*
Y411400D01*
X344250Y406400D02*
X354250D01*
X349250Y401400D02*
Y411400D01*
X369650Y406400D02*
X379650D01*
X374650Y401400D02*
Y411400D01*
X395050Y406400D02*
X405050D01*
X400050Y401400D02*
Y411400D01*
X420450Y406400D02*
X430450D01*
X425450Y401400D02*
Y411400D01*
X445850Y406400D02*
X455850D01*
X450850Y401400D02*
Y411400D01*
X471250Y406400D02*
X481250D01*
X476250Y401400D02*
Y411400D01*
X636270Y151130D02*
X646430D01*
X641350Y146050D02*
Y156210D01*
X636270Y125730D02*
X646430D01*
X641350Y120650D02*
Y130810D01*
X636270Y215900D02*
X646430D01*
X641350Y210820D02*
Y220980D01*
X636270Y190500D02*
X646430D01*
X641350Y185420D02*
Y195580D01*
X636270Y279400D02*
X646430D01*
X641350Y274320D02*
Y284480D01*
X636270Y254000D02*
X646430D01*
X641350Y248920D02*
Y259080D01*
X644400Y355600D02*
X676400D01*
X660400Y339600D02*
Y371600D01*
X402590Y25400D02*
X410210D01*
X406400Y21590D02*
Y29210D01*
X427990Y25400D02*
X435610D01*
X431800Y21590D02*
Y29210D01*
X275590Y25400D02*
X283210D01*
X279400Y21590D02*
Y29210D01*
X300990Y25400D02*
X308610D01*
X304800Y21590D02*
Y29210D01*
X326390Y25400D02*
X334010D01*
X330200Y21590D02*
Y29210D01*
X351790Y25400D02*
X359410D01*
X355600Y21590D02*
Y29210D01*
X377190Y25400D02*
X384810D01*
X381000Y21590D02*
Y29210D01*
X453390Y25400D02*
X461010D01*
X457200Y21590D02*
Y29210D01*
X580390Y508000D02*
X588010D01*
X584200Y504190D02*
Y511810D01*
X605790Y508000D02*
X613410D01*
X609600Y504190D02*
Y511810D01*
X453390Y508000D02*
X461010D01*
X457200Y504190D02*
Y511810D01*
X478790Y508000D02*
X486410D01*
X482600Y504190D02*
Y511810D01*
X504190Y508000D02*
X511810D01*
X508000Y504190D02*
Y511810D01*
X529590Y508000D02*
X537210D01*
X533400Y504190D02*
Y511810D01*
X554990Y508000D02*
X562610D01*
X558800Y504190D02*
Y511810D01*
X631190Y508000D02*
X638810D01*
X635000Y504190D02*
Y511810D01*
X184150Y508000D02*
X191770D01*
X187960Y504190D02*
Y511810D01*
X209550Y508000D02*
X217170D01*
X213360Y504190D02*
Y511810D01*
X234950Y508000D02*
X242570D01*
X238760Y504190D02*
Y511810D01*
X260350Y508000D02*
X267970D01*
X264160Y504190D02*
Y511810D01*
X285750Y508000D02*
X293370D01*
X289560Y504190D02*
Y511810D01*
X311150Y508000D02*
X318770D01*
X314960Y504190D02*
Y511810D01*
X336550Y508000D02*
X344170D01*
X340360Y504190D02*
Y511810D01*
X361950Y508000D02*
X369570D01*
X365760Y504190D02*
Y511810D01*
X387350Y508000D02*
X394970D01*
X391160Y504190D02*
Y511810D01*
X412750Y508000D02*
X420370D01*
X416560Y504190D02*
Y511810D01*
X631190Y25400D02*
X638810D01*
X635000Y21590D02*
Y29210D01*
X605790Y25400D02*
X613410D01*
X609600Y21590D02*
Y29210D01*
X580390Y25400D02*
X588010D01*
X584200Y21590D02*
Y29210D01*
X554990Y25400D02*
X562610D01*
X558800Y21590D02*
Y29210D01*
X529590Y25400D02*
X537210D01*
X533400Y21590D02*
Y29210D01*
X504190Y25400D02*
X511810D01*
X508000Y21590D02*
Y29210D01*
X136400Y508000D02*
X168400D01*
X152400Y492000D02*
Y524000D01*
X232000Y167500D02*
X238000D01*
X235000Y164500D02*
Y170500D01*
X244650Y312500D02*
X250650D01*
X247650Y309500D02*
Y315500D01*
X494500Y312500D02*
X500500D01*
X497500Y309500D02*
Y315500D01*
X142000Y454660D02*
X148000D01*
X145000Y451660D02*
Y457660D01*
X459500Y85000D02*
X465500D01*
X462500Y82000D02*
Y88000D01*
X459500Y187500D02*
X465500D01*
X462500Y184500D02*
Y190500D01*
X371650Y275000D02*
X377650D01*
X374650Y272000D02*
Y278000D01*
X349500Y292500D02*
X355500D01*
X352500Y289500D02*
Y295500D01*
X519500Y292500D02*
X525500D01*
X522500Y289500D02*
Y295500D01*
X520008Y107500D02*
X526008D01*
X523008Y104500D02*
Y110500D01*
X296050Y241550D02*
X302050D01*
X299050Y238550D02*
Y244550D01*
X17000Y205000D02*
X23000D01*
X20000Y202000D02*
Y208000D01*
X207000Y197500D02*
X213000D01*
X210000Y194500D02*
Y200500D01*
X207000Y287500D02*
X213000D01*
X210000Y284500D02*
Y290500D01*
X169500Y352500D02*
X175500D01*
X172500Y349500D02*
Y355500D01*
X124000Y350000D02*
X130000D01*
X127000Y347000D02*
Y353000D01*
X107000Y360000D02*
X113000D01*
X110000Y357000D02*
Y363000D01*
X74500Y323850D02*
X80500D01*
X77500Y320850D02*
Y326850D01*
X92342Y340000D02*
X98342D01*
X95342Y337000D02*
Y343000D01*
X92342Y287408D02*
X98342D01*
X95342Y284408D02*
Y290408D01*
X512000Y380000D02*
X518000D01*
X515000Y377000D02*
Y383000D01*
X512000Y415000D02*
X518000D01*
X515000Y412000D02*
Y418000D01*
X74500Y222500D02*
X80500D01*
X77500Y219500D02*
Y225500D01*
X74500Y372500D02*
X80500D01*
X77500Y369500D02*
Y375500D01*
X149650Y115000D02*
X155650D01*
X152650Y112000D02*
Y118000D01*
X244650Y117350D02*
X250650D01*
X247650Y114350D02*
Y120350D01*
X99500Y190500D02*
X105500D01*
X102500Y187500D02*
Y193500D01*
X99500Y257500D02*
X105500D01*
X102500Y254500D02*
Y260500D01*
X505000Y100000D02*
X511000D01*
X508000Y97000D02*
Y103000D01*
X474520Y192480D02*
X480520D01*
X477520Y189480D02*
Y195480D01*
X474520Y254980D02*
X480520D01*
X477520Y251980D02*
Y257980D01*
X474520Y340000D02*
X480520D01*
X477520Y337000D02*
Y343000D01*
X193850Y267500D02*
X199850D01*
X196850Y264500D02*
Y270500D01*
X217000Y240000D02*
X223000D01*
X220000Y237000D02*
Y243000D01*
X308310Y225000D02*
X314310D01*
X311310Y222000D02*
Y228000D01*
X447790Y212500D02*
X453790D01*
X450790Y209500D02*
Y215500D01*
X334500Y212500D02*
X340500D01*
X337500Y209500D02*
Y215500D01*
M02*
